<svg id="Icons" height="512" viewBox="0 0 74 74" width="512"
  xmlns="http://www.w3.org/2000/svg">
  <path d="m44.6 72a4.45 4.45 0 0 1 -4.44-4.45v-14.5l-9.154-7.309a9.44 9.44 0 0 1 -1.891-12.687l5.755-8.41-7.537-.669-7.111 6.807a3.948 3.948 0 0 1 -5.363-.04 3.858 3.858 0 0 1 .014-5.5l8.39-8.16a4.936 4.936 0 0 1 3.437-1.4h14.08a5.66 5.66 0 0 1 3.32 1.092l4.656 3.475a5.3 5.3 0 0 1 1.813 6.008 5.152 5.152 0 0 1 -.6 1.194l-8.79 12.868 6.558 6.194a4.186 4.186 0 0 1 1.313 3.047v.44a1 1 0 0 1 -2 0v-.44a2.181 2.181 0 0 0 -.684-1.59l-7.182-6.783a1 1 0 0 1 -.14-1.291l9.269-13.57a3.173 3.173 0 0 0 .375-.739 3.29 3.29 0 0 0 -1.123-3.733l-4.653-3.473a3.64 3.64 0 0 0 -2.132-.7h-14.08a2.921 2.921 0 0 0 -2.038.832l-8.394 8.165a1.857 1.857 0 0 0 0 2.642 1.9 1.9 0 0 0 2.572.021l7.442-7.123a1 1 0 0 1 .781-.273l9.69.86a1 1 0 0 1 .736 1.561l-6.719 9.82a7.439 7.439 0 0 0 1.488 9.994l9.53 7.61a1 1 0 0 1 .376.781v14.979a2.448 2.448 0 0 0 2.436 2.45 2.4 2.4 0 0 0 1.727-.711 2.473 2.473 0 0 0 .723-1.739v-1.32a1 1 0 0 1 2 0v1.32a4.479 4.479 0 0 1 -1.3 3.147 4.377 4.377 0 0 1 -3.15 1.303z"/>
  <path d="m48.05 62.23a1 1 0 0 1 -1-1v-6.23a1 1 0 0 1 2 0v6.23a1 1 0 0 1 -1 1z"/>
  <path d="m64.026 39.035h-10.191a3.783 3.783 0 0 1 -2.7-1.139l-5.729-5.888a1 1 0 0 1 1.434-1.4l5.73 5.892a1.775 1.775 0 0 0 1.265.534h10.191a1.841 1.841 0 1 0 0-3.682h-8.063a1 1 0 0 1 -.713-.3l-6.324-6.421 1.423-1.406 6.033 6.126h7.644a3.841 3.841 0 1 1 0 7.682z"/>
  <path d="m24.694 57.208h-14.042a4.52 4.52 0 0 1 0-9.039h11.242l6.193-7.846a1 1 0 0 1 1.57 1.239l-6.494 8.227a1 1 0 0 1 -.785.38h-11.726a2.52 2.52 0 0 0 0 5.039h14.042a2.574 2.574 0 0 0 2-.943l6.582-8.008a1 1 0 1 1 1.545 1.269l-6.582 8.009a4.567 4.567 0 0 1 -3.545 1.673z"/>
  <path d="m52.668 17.227a7.614 7.614 0 1 1 7.613-7.614 7.622 7.622 0 0 1 -7.613 7.614zm0-13.227a5.614 5.614 0 1 0 5.613 5.613 5.619 5.619 0 0 0 -5.613-5.613z"/>
</svg>